<?xml version="1.0" encoding="utf-8"?>
<!-- Generator: Adobe Illustrator 22.0.1, SVG Export Plug-In . SVG Version: 6.00 Build 0)  -->
<svg version="1.1" xmlns="http://www.w3.org/2000/svg" xmlns:xlink="http://www.w3.org/1999/xlink" x="0px" y="0px"
	 viewBox="0 0 512 512" style="enable-background:new 0 0 512 512;" xml:space="preserve">
<style type="text/css">
	.st0{fill:#4B71B4;}
	.st1{fill:#80B4E8;}
	.st2{fill:#594144;}
	.st3{fill:#B8E876;}
	.st4{fill:#E09122;}
	.st5{fill:#FBF355;}
	.st6{fill:#EEC82F;}
	.st7{fill:#CEA628;}
	.st8{fill:#9BC9EF;}
	.st9{fill:#9DD055;}
	.st10{fill:#5686C5;}
	.st11{fill:#3B5880;}
	.st12{fill:#C2E5FB;}
	.st13{fill:#446697;}
	.st14{fill:#D1F1A0;}
	.st15{fill:#ABD170;}
	.st16{fill:#9DBD6A;}
	.st17{fill:#649D53;}
	.st18{fill:#72B35D;}
	.st19{fill:#ABD68D;}
	.st20{fill:#7FB358;}
	.st21{fill:#920C50;}
	.st22{fill:#C60053;}
	.st23{fill:#530730;}
	.st24{fill:#600332;}
	.st25{fill:#D5AC2A;}
	.st26{fill:#EFD776;}
	.st27{fill:#A7C76D;}
	.st28{fill:#A43749;}
	.st29{fill:#DC4355;}
	.st30{fill:#E18696;}
	.st31{fill:#77A255;}
	.st32{fill:#628547;}
	.st33{fill:#6E994D;}
	.st34{fill:none;stroke:#54743C;stroke-width:8;stroke-linecap:round;stroke-miterlimit:10;}
	.st35{fill:#9BCF75;}
	.st36{fill:#CA8F80;}
	.st37{fill:#E6B8AB;}
	.st38{fill:#E2A18B;}
	.st39{fill:#8E3F2B;}
	.st40{fill:#D89988;}
	.st41{fill:#CFCFCF;}
	.st42{fill:#A64B2D;}
	.st43{fill:#FFFFFF;}
	.st44{fill:#CA801F;}
	.st45{fill:#719C50;}
	.st46{fill:#85B7E5;}
	.st47{fill:#4F7BA9;}
	.st48{fill:#674C50;}
	.st49{fill:#BAD7ED;}
	.st50{fill:#63494D;}
	.st51{fill:#503D3F;}
	.st52{fill:#638547;}
	.st53{fill:#56713E;}
	.st54{fill:#BB5135;}
	.st55{fill:#93C4EC;}
	.st56{fill:#CA8121;}
	.st57{fill:#FDFCFC;}
	.st58{fill:#A83A4F;}
	.st59{fill:#BD5E44;}
	.st60{fill:#688C4A;}
	.st61{fill:#7DA55A;}
	.st62{fill:#90BA51;}
	.st63{fill:none;}
	.st64{fill:#ABC287;}
	.st65{fill:#BDD993;}
	.st66{fill:none;stroke:#534046;stroke-width:15;stroke-linecap:round;stroke-linejoin:round;stroke-miterlimit:10;}
	.st67{fill:#413133;}
	.st68{fill:#34292B;}
	.st69{fill:#644B50;}
	.st70{fill:#CDACB7;}
	.st71{fill:#A83A4D;}
	.st72{fill:#413335;}
	.st73{fill:#DC6579;}
	.st74{fill:#4C393C;}
	.st75{fill:#527FAE;}
	.st76{fill:#92C2EA;}
	.st77{fill:#5B8C4A;}
	.st78{fill:#729C51;}
	.st79{fill:#AADB5E;}
	.st80{fill:#D66C53;}
	.st81{fill:#A65340;}
	.st82{fill:#B8594A;}
	.st83{fill:#79A754;}
	.st84{fill:#4E3B3E;}
	.st85{fill:#5E4649;}
	.st86{fill:#604A50;}
	.st87{fill:#685258;}
	.st88{fill:#765E66;}
	.st89{fill:#FCF69A;}
	.st90{fill:#D3CC84;}
	.st91{fill:#E6A572;}
	.st92{fill:#74A151;}
	.st93{fill:#6F994F;}
	.st94{fill:#CC6D7D;}
	.st95{fill:#AD6576;}
	.st96{fill:#95422D;}
	.st97{fill:#BE6850;}
	.st98{fill:#3B2F32;}
	.st99{fill:none;stroke:#46383B;stroke-width:15;stroke-linecap:round;stroke-miterlimit:10;}
	.st100{fill:none;stroke:#3B2F32;stroke-width:15;stroke-linecap:round;stroke-miterlimit:10;}
	.st101{fill:#D6CF77;}
	.st102{fill:#F5EF82;}
	.st103{fill:#4A383B;}
	.st104{fill:#CACACA;}
	.st105{fill:#48373A;}
	.st106{fill:#7AA8D2;}
	.st107{fill:#6E9150;}
	.st108{fill:#587441;}
	.st109{fill:#D76E51;}
	.st110{fill:#CCC475;}
	.st111{fill:#DDD57E;}
	.st112{fill:#F8F19C;}
	.st113{fill:#FBF58A;}
	.st114{fill:#C67F20;}
	.st115{fill:#AB6B1C;}
	.st116{fill:#C98020;}
	.st117{fill:#D99A41;}
	.st118{fill:#DBA35B;}
	.st119{fill:#9B5F1B;}
	.st120{fill:#97CF6D;}
	.st121{fill:#5380B1;}
	.st122{fill:#96D16A;}
	.st123{fill:#92BD50;}
	.st124{fill:#7EB058;}
	.st125{fill:#709A50;}
	.st126{fill:#5A8A4A;}
	.st127{fill:#D9D9D9;}
	.st128{fill:#75A3CD;}
	.st129{fill:#6E974F;}
	.st130{fill:#CA6D7D;}
	.st131{fill:#AB6576;}
	.st132{fill:#93422D;}
	.st133{fill:#A44B2D;}
	.st134{fill:#BC6850;}
	.st135{fill:#DFB52B;}
	.st136{fill:#4C3A3C;}
	.st137{fill:#473538;}
	.st138{fill:#382B2E;}
	.st139{fill:none;stroke:#FFFFFF;stroke-width:8;stroke-linecap:round;stroke-miterlimit:10;}
	.st140{fill:#90C0E8;}
	.st141{fill:none;stroke:#E09122;stroke-width:12;stroke-linecap:round;stroke-miterlimit:10;}
	.st142{fill:#DCAE2B;}
	.st143{fill:#F0D05A;}
	.st144{fill:#729E51;}
	.st145{fill:#E4BA36;}
	.st146{fill:#F8F283;}
	.st147{fill:#E4B6A9;}
	.st148{fill:#D78E30;}
	.st149{fill:#598A49;}
	.st150{fill:#B65339;}
	.st151{fill:#BA751F;}
	.st152{fill:#466A9F;}
	.st153{fill:#8BB34D;}
	.st154{fill:#9BCE54;}
	.st155{fill:#7F9F49;}
	.st156{fill:#D37F6D;}
	.st157{fill:#BB5E44;}
	.st158{fill:#93BB55;}
	.st159{fill:#B3E665;}
	.st160{fill:none;stroke:#4C393C;stroke-width:8;stroke-miterlimit:10;}
	.st161{fill:#97432D;}
	.st162{fill:#DAB12A;}
	.st163{fill:#5E914C;}
	.st164{fill:#5381B3;}
	.st165{fill:#6A8F4C;}
	.st166{fill:#628047;}
	.st167{fill:#E29D37;}
	.st168{fill:#6E555B;}
	.st169{fill:#91CA67;}
	.st170{fill:#476BA1;}
	.st171{fill:#6699D9;}
	.st172{fill:#503C3E;}
	.st173{fill:#413235;}
	.st174{fill:#CC916A;}
	.st175{fill:#BA8363;}
	.st176{fill:#D09571;}
	.st177{fill:#C98F68;}
	.st178{fill:#AA3B4D;}
	.st179{fill:#DA6075;}
	.st180{fill:#92452D;}
	.st181{fill:#A24B2D;}
	.st182{fill:#B76252;}
	.st183{fill:#87BD60;}
	.st184{fill:#78A7D2;}
	.st185{fill:#F9F38F;}
	.st186{fill:#E0D650;}
	.st187{fill:#AFE086;}
	.st188{fill:#9FD476;}
	.st189{fill:#9DD176;}
	.st190{fill:#8FC468;}
	.st191{fill:#7EAE58;}
	.st192{fill:#6F9850;}
	.st193{fill:#59884A;}
	.st194{fill:#638347;}
	.st195{fill:#B95135;}
	.st196{fill:#E5AB62;}
	.st197{fill:#733228;}
	.st198{fill:#803728;}
	.st199{fill:#6D974D;}
	.st200{fill:#99CD75;}
	.st201{fill:#93412C;}
	.st202{fill:#93C2EA;}
	.st203{fill:#CD926B;}
	.st204{fill:#E6AF8A;}
	.st205{fill:#E5DB4E;}
	.st206{fill:#FBF375;}
	.st207{fill:#779E54;}
	.st208{fill:#D3966D;}
	.st209{fill:#DA4355;}
	.st210{fill:#A83B4D;}
	.st211{fill:none;stroke:#594144;stroke-width:8;stroke-linecap:round;stroke-miterlimit:10;}
	.st212{fill:#E5A855;}
	.st213{fill:#EAC291;}
	.st214{fill:#96C252;}
	.st215{fill:#695055;}
	.st216{fill:#DC9C42;}
	.st217{fill:#8E5C1B;}
	.st218{fill:#F4EB6A;}
	.st219{fill:#CBC049;}
	.st220{fill:none;stroke:#B8E876;stroke-width:15;stroke-linecap:round;stroke-miterlimit:10;}
	.st221{fill:#A36A1C;}
	.st222{fill:#ECC94A;}
	.st223{fill:#91BEDA;}
	.st224{fill:#3D2F32;}
	.st225{fill:#A6394C;}
	.st226{fill:#33292B;}
	.st227{fill:#4F3D42;}
	.st228{fill:#638147;}
	.st229{fill:#CD8321;}
	.st230{fill:#D3CA4A;}
	.st231{fill:#E2A550;}
	.st232{fill:#B75135;}
	.st233{fill:#D4CD77;}
	.st234{fill:#F3EC80;}
	.st235{fill:#46383B;}
	.st236{fill:#82AA61;}
	.st237{fill:#8EBF69;}
	.st238{fill:#3C2E31;}
	.st239{fill:#C49F27;}
	.st240{fill:#D2BF7C;}
	.st241{fill:#F6E18D;}
	.st242{fill:#D6D6D6;}
	.st243{fill:#B5D7F2;}
	.st244{fill:#F1D467;}
	.st245{fill:#739FBD;}
	.st246{fill:#D0946C;}
	.st247{fill:#BE8767;}
	.st248{fill:#D0A829;}
	.st249{fill:#F6DF86;}
	.st250{fill:#EABA8D;}
	.st251{fill:#F0D1B8;}
	.st252{fill:#A5D0F1;}
	.st253{fill:#E3A13F;}
	.st254{fill:#F0FAFF;}
	.st255{fill:#B4D3E3;}
	.st256{fill:#80A5C3;}
	.st257{fill:#87AFD5;}
	.st258{fill:#B1D1E7;}
	.st259{fill:#AED66F;}
	.st260{fill:#91AA61;}
	.st261{fill:#A8384B;}
	.st262{fill:#CD8120;}
	.st263{fill:#E6AD56;}
	.st264{fill:none;stroke:#E6AD56;stroke-width:8;stroke-linecap:round;stroke-miterlimit:10;}
	.st265{fill:#9EBD68;}
	.st266{fill:#AAD16E;}
	.st267{fill:#86656B;}
	.st268{fill:#6D954D;}
	.st269{fill:#98CB75;}
	.st270{fill:#75A251;}
	.st271{fill:#91BD4F;}
	.st272{fill:none;stroke:#B8E078;stroke-width:8;stroke-linecap:round;stroke-miterlimit:10;}
	.st273{fill:none;stroke:#B8E078;stroke-width:8;stroke-linecap:round;stroke-linejoin:round;stroke-miterlimit:10;}
	.st274{fill:#8FBA4E;}
	.st275{fill:#B3E860;}
	.st276{fill:#E7A748;}
	.st277{fill:none;stroke:#B6E676;stroke-width:15;stroke-linecap:round;stroke-miterlimit:10;}
	.st278{fill:#639B53;}
	.st279{fill:#476B9F;}
	.st280{fill:#82B1DE;}
	.st281{fill:#A6533F;}
	.st282{fill:#C28A69;}
	.st283{fill:#64494E;}
	.st284{fill:#77565C;}
	.st285{fill:#4F3C40;}
	.st286{fill:#ECCCB1;}
	.st287{fill:#BF6F5C;}
	.st288{fill:none;stroke:#D4F1A7;stroke-width:10;stroke-linecap:round;stroke-miterlimit:10;}
	.st289{fill:none;stroke:#B8E876;stroke-width:10;stroke-linecap:round;stroke-miterlimit:10;}
	.st290{fill:#47688F;}
	.st291{fill:#3F5B78;}
	.st292{fill:#354E6C;}
	.st293{fill:#DAB12B;}
	.st294{fill:#C8A028;}
	.st295{fill:#F0D15C;}
	.st296{fill:#F8F28B;}
	.st297{fill:#F7F18D;}
	.st298{fill:#DED450;}
	.st299{fill:#F9F155;}
	.st300{fill:#A2CFF4;}
	.st301{fill:none;stroke:#594144;stroke-width:10;stroke-linecap:round;stroke-miterlimit:10;}
	.st302{fill:#F5F0AB;}
	.st303{fill:#496DA1;}
	.st304{fill:#5A85C7;}
	.st305{fill:#D7D7D7;}
	.st306{fill:#ADD3E6;}
	.st307{fill:#98B8C3;}
	.st308{fill:#CDCECF;}
	.st309{fill:#BF4F69;}
	.st310{fill:#A83448;}
	.st311{fill:#A4DAF7;}
	.st312{fill:#81A861;}
	.st313{fill:#82A549;}
	.st314{fill:#B6E676;}
	.st315{fill:#8CBD69;}
	.st316{fill:#ECC62F;}
	.st317{fill:#F4EA80;}
	.st318{fill:#D6AD2B;}
	.st319{fill:#6F9151;}
	.st320{fill:#46699C;}
	.st321{fill:#4A373A;}
	.st322{fill:#89B04C;}
	.st323{fill:#99CC53;}
	.st324{fill:#B1E465;}
	.st325{fill:#E19E3B;}
	.st326{fill:#C05970;}
	.st327{fill:#D95F74;}
	.st328{fill:#74A8DE;}
	.st329{fill:#C47C1E;}
	.st330{fill:#719A51;}
	.st331{fill:#A8D95E;}
	.st332{fill:#D46C53;}
	.st333{fill:#A45340;}
	.st334{fill:#B6594A;}
	.st335{fill:#79A554;}
	.st336{fill:#B6DAF7;}
	.st337{fill:#739F51;}
	.st338{fill:#DDB32B;}
	.st339{fill:#DE8F22;}
	.st340{fill:none;stroke:#46383B;stroke-width:8;stroke-linecap:round;stroke-miterlimit:10;}
	.st341{fill:none;stroke:#3B2F32;stroke-width:8;stroke-linecap:round;stroke-miterlimit:10;}
	.st342{fill:#C8C8C8;}
	.st343{fill:#7F9D49;}
	.st344{fill:#BA5E44;}
	.st345{fill:#92B955;}
	.st346{fill:#D17F6D;}
	.st347{fill:#5D8F4C;}
	.st348{fill:#B75334;}
	.st349{fill:#CA6D57;}
	.st350{fill:#A4574D;}
	.st351{fill:#7FB1E6;}
	.st352{fill:#77A3CD;}
	.st353{fill:#90BA4F;}
	.st354{fill:#5C8F4B;}
	.st355{fill:#ACDE5D;}
	.st356{fill:#6FAC5A;}
	.st357{fill:none;stroke:#9DD055;stroke-width:10;stroke-linecap:round;stroke-miterlimit:10;}
	.st358{fill:#AD5643;}
	.st359{fill:#B96052;}
	.st360{fill:#CB8D84;}
	.st361{fill:#CC6C56;}
	.st362{fill:#DE9A8E;}
	.st363{fill:#D37B6A;}
	.st364{fill:#A87758;}
	.st365{fill:#372A2C;}
	.st366{fill:#B8815C;}
	.st367{fill:#433335;}
	.st368{fill:#2C2325;}
	.st369{fill:#95402B;}
	.st370{fill:#A85441;}
	.st371{fill:#D2C74B;}
	.st372{fill:#B25945;}
	.st373{fill:none;stroke:#594144;stroke-width:15;stroke-linecap:round;stroke-miterlimit:10;}
	.st374{fill:none;stroke:#594144;stroke-width:12;stroke-linecap:round;stroke-miterlimit:10;}
	.st375{fill:#8F473B;}
	.st376{fill:#453538;}
	.st377{fill:#517DAB;}
	.st378{fill:#75A050;}
	.st379{fill:#A5384D;}
	.st380{fill:#CC6075;}
	.st381{fill:#F26B7F;}
	.st382{fill:#C67189;}
	.st383{fill:#B26980;}
	.st384{fill:#D87990;}
	.st385{fill:#F2869B;}
	.st386{fill:#EF8499;}
	.st387{fill:#649CD7;}
	.st388{fill:#639CDB;}
	.st389{fill:#C8ED8D;}
	.st390{fill:#A9DB83;}
	.st391{fill:#9BCF76;}
	.st392{fill:#7EAC58;}
	.st393{fill:#8CC463;}
	.st394{fill:#7FAC5B;}
	.st395{fill:#769C55;}
	.st396{fill:#6A894D;}
	.st397{fill:#769B56;}
	.st398{fill:#9BCC75;}
	.st399{fill:#AF5641;}
	.st400{fill:#F4D576;}
	.st401{fill:#76A055;}
	.st402{fill:#628347;}
	.st403{fill:#4F7B9F;}
	.st404{fill:#466D86;}
	.st405{fill:#4D789C;}
</style>
<g id="BULINE">
	<circle id="XMLID_835_" class="st4" cx="256" cy="256" r="256"/>
</g>
<g id="Icons">
	<g id="XMLID_838_">
		<circle id="XMLID_2356_" class="st212" cx="263.7" cy="241.7" r="186.5"/>
		<path id="XMLID_2320_" class="st213" d="M461.7,126.1c-2.7-1.6-5.8-2.7-9.2-3c-0.6-0.1-1.3-0.1-1.9-0.1c-2.6,0-5.1,0.5-7.4,1.3
			c-0.3-2-0.9-3.9-1.6-5.7c-2.8-7.3-8.1-13.2-14.9-16.8c-2.2-1.2-4.6-2.1-7.1-2.7c-0.8-0.2-1.6-0.4-2.4-0.5
			c-1.7-0.3-3.5-0.4-5.3-0.4h-0.2c-0.9-6.8-5-12.7-10.7-16c-3.2-1.8-6.9-2.9-10.8-2.9c-1.3,0-2.6,0.1-3.9,0.4
			c-0.2-4-1.7-7.6-4.1-10.4c-3.2-3.8-8-6.2-13.4-6.2c-7.5,0-13.9,4.7-16.4,11.3c-0.3,0.9-0.6,1.8-0.8,2.8c-0.2,1-0.3,2-0.3,3.1
			c-0.2-0.2-0.4-0.5-0.6-0.7c-3.5-3.7-8.4-5.9-13.9-5.9c-4.7,0-9,1.7-12.4,4.5c-4.3,3.5-7,8.9-7,14.9c0,0.2,0,0.5,0,0.7
			c-1.8-0.7-3.7-1.1-5.7-1.1c-1.3,0-2.6,0.2-3.8,0.5c-5,1.3-8.9,5.1-10.5,10c-0.5,0-1,0-1.5,0.1c-5.4,0.3-10.4,1.9-14.7,4.5
			c-9.2,5.6-15.3,15.6-15.3,27.1c0,4,0.8,7.9,2.1,11.4c2.8,7.2,8.1,13.1,14.8,16.7c4.4,2.3,9.4,3.7,14.8,3.7h153.1
			c0.6,0,1.3,0,1.9-0.1c0.2,0,0.5,0,0.7-0.1c4.1-0.5,7.9-2.1,11-4.6c1.9-1.5,3.6-3.4,4.9-5.5c2-3.3,3.2-7.2,3.2-11.4
			C472.3,136.8,468,129.9,461.7,126.1z M381.2,137.9h-0.5c0.1-0.1,0.3-0.3,0.4-0.4C381.1,137.6,381.1,137.7,381.2,137.9z"/>
		<path id="XMLID_2311_" class="st213" d="M209.9,193.3c-2.7-1.6-5.8-2.7-9.2-3c-0.6-0.1-1.3-0.1-1.9-0.1c-2.6,0-5.1,0.5-7.4,1.3
			c-0.4-2-0.9-3.9-1.6-5.7c-1.1-2.9-2.6-5.6-4.5-8.1c-2.1-2.7-4.5-5-7.3-6.9c0,0,0,0,0,0c-0.1-0.1-0.2-0.1-0.2-0.2
			c-1.9-1.3-4-2.4-6.2-3.2c-1.2-0.5-2.5-0.9-3.8-1.2c-2.4-0.6-4.9-0.9-7.5-0.9h-0.4c-0.1-0.7-0.2-1.4-0.4-2.1c-1-4.3-3.3-8.1-6.4-11
			c-1-0.9-2-1.7-3.1-2.4c-0.3-0.2-0.5-0.4-0.8-0.5c-3.2-1.8-6.9-2.9-10.8-2.9c-1.3,0-2.7,0.1-3.9,0.4c-0.2-4-1.7-7.6-4.1-10.4
			c-3.2-3.8-8-6.2-13.4-6.2c-1,0-2,0.1-3,0.2c-5.6,1-10.3,4.6-12.7,9.5c-0.3,0.5-0.5,1-0.7,1.6c-0.7,1.8-1.1,3.8-1.1,5.9
			c-0.1-0.1-0.2-0.2-0.3-0.4c0,0,0,0,0,0c-0.1-0.1-0.2-0.2-0.3-0.3c-2.1-2.2-4.8-3.9-7.8-4.9c-1.9-0.7-4-1-6.1-1
			c-1.7,0-3.3,0.2-4.9,0.6c-2.8,0.7-5.3,2.1-7.4,3.8c-4.3,3.6-7,8.9-7,14.9c0,0.2,0,0.5,0,0.7c-1.8-0.7-3.7-1.1-5.7-1.1
			c-6.7,0-12.4,4.4-14.4,10.5C28.1,170.4,14,184.5,14,201.9c0,4,0.8,7.9,2.1,11.4c3.3,8.7,10.4,15.5,19.2,18.6
			c3.3,1.2,6.8,1.8,10.5,1.8h153.1c0.6,0,1.3,0,1.9-0.1c7-0.6,13.1-4.6,16.6-10.2c2-3.3,3.2-7.2,3.2-11.4
			C220.5,204,216.2,197.1,209.9,193.3z M128.9,205.1c0.1-0.1,0.3-0.3,0.4-0.4c0,0.1,0,0.2,0.1,0.4H128.9z"/>
		<path id="XMLID_2473_" class="st9" d="M498.3,338.7c-3.9,11.3-8.5,22.3-13.8,32.8c-2.2,4.4-4.6,8.8-7.1,13
			c-8.9,15.3-19.4,29.7-31.2,42.8c-0.8,0.9-1.6,1.8-2.4,2.7l-2.2,2.4c-3.9,4.1-7.9,8-12.1,11.9c-0.9,0.8-1.8,1.6-2.7,2.4
			c-7.3,6.5-14.9,12.6-22.9,18.3c-6.9-2.9-13-11.1-19.6-14.1c-0.5-0.2-1-0.4-1.5-0.6c-0.2,0-0.3-0.1-0.5-0.1
			c-1.6-0.5-3.3-0.7-5.1-0.7c-5-0.1-10.5,0.9-15.5,0.8c-3.4-0.1-6.5-0.6-9-2.4c-7.6-5.5-6.2-20.3-11.7-27.9c-1.6-2.2-3.9-4-6.5-5.7
			c-1.7-1.1-3.4-2.2-5.2-3.2c-1.7-1.1-3.4-2.1-5-3.3c-2.9-2.1-5.2-4.6-6.3-7.6c-1.9-5.7,1.7-12.4,4.4-19.1c1.4-3.5,2.6-7,2.6-10.4
			c0-9.7-9.8-20.8-6.9-29.5c2.9-9,17.5-12.2,22.9-19.8c1.5-2.1,2.5-4.7,3.3-7.6c2.1-7.5,2.9-16.3,8.4-20.3c1.2-0.9,2.6-1.5,4.2-1.9
			h0c5.8-1.4,13.2,0.3,19.7,0.2c2.2,0,4.4-0.2,6.3-0.9c3.6-1.2,7-4,10.4-7c4.9-4.2,9.8-8.7,15.5-8.7c9.4,0,16.8,12.1,25.2,15.4
			c0.2,0.1,0.5,0.2,0.7,0.3c2.6,0.9,5.6,1,8.7,0.8c7.7-0.3,16.1-2.2,21.4,1.7c7.6,5.5,6.2,20.3,11.7,27.9
			C481.5,328.2,493.8,331.5,498.3,338.7z"/>
		<path id="XMLID_2574_" class="st214" d="M194.7,388.4c1,2.7,1.8,5.3,1.9,7.9c0,1.3-0.1,2.6-0.5,3.9c-1.5,4.6-6.1,7.7-10.9,10.7
			c-2,1.2-4.1,2.5-6,3.8c-2.4,1.6-4.5,3.3-6,5.3c-1.2,1.6-2,3.5-2.7,5.5c-0.6,1.8-1.1,3.8-1.6,5.8c-1.1,4.7-2.1,9.4-4.3,13
			c-0.9,1.4-1.9,2.6-3.2,3.6c-0.6,0.4-1.2,0.8-1.8,1.1c-1.9,0.9-4.1,1.3-6.5,1.4h0c-1,0-2,0-3.1,0h0c-3-0.1-6.1-0.5-9.1-0.6
			c-1.3-0.1-2.6-0.1-3.9-0.1h-0.1c-2,0.1-3.9,0.3-5.6,0.9c-0.2,0.1-0.5,0.2-0.7,0.3c-2.1,0.8-4.2,2.2-6.2,3.8c-5,4-9.9,9.3-15.4,11
			c-12.1-8.5-23.3-18-33.7-28.4c-1.2-1.2-2.4-2.4-3.5-3.6c-0.4-0.4-0.7-0.7-1.1-1.1c-0.7-0.8-1.5-1.6-2.2-2.4
			c-8.4-9-16.1-18.7-23.2-28.9c0,0-0.1-0.1-0.1-0.1c-0.8-1.1-1.5-2.2-2.3-3.4c-0.1-0.2-0.2-0.3-0.3-0.5c-5.1-7.8-9.9-15.8-14.1-24.1
			c-5.3-10.2-9.9-20.9-13.8-31.9c0,0,0,0,0,0c2.9-9,17.5-12.2,22.9-19.8c5.5-7.6,4.1-22.4,11.7-27.9c6.9-5,18.9-0.5,27.8-2
			c0.8-0.1,1.6-0.3,2.4-0.6c1.3-0.4,2.6-1.1,3.9-1.9c2.6-1.7,5.2-3.9,7.8-6.2c4.5-3.9,9-7.5,14.2-7.5c9.4,0,16.8,12.1,25.2,15.4
			c0.2,0.1,0.5,0.2,0.7,0.3c1.7,0.6,3.6,0.8,5.6,0.9h0.1c2.8,0.1,5.8-0.2,8.7-0.4c5-0.4,10-0.7,13.8,1.1c0.7,0.3,1.3,0.7,1.8,1.1
			c7.6,5.5,6.2,20.3,11.7,27.9c0.9,1.2,2,2.3,3.3,3.4c1.1,0.9,2.3,1.7,3.6,2.5c6.3,4.1,14.1,7.6,16.1,13.9
			c2.8,8.7-6.9,19.8-6.9,29.5C189.1,376.3,192.5,382.5,194.7,388.4z"/>
		<path id="XMLID_2308_" class="st9" d="M189.1,370.7c0,9.7,9.8,20.8,6.9,29.5c-2.9,9-17.5,12.2-22.9,19.8
			c-5.5,7.6-4.1,22.4-11.7,27.9c-6,4.4-16,1.5-24.4,1.7h-0.1c-8.4-0.2-18.4,2.7-24.4-1.7c-7.6-5.5-6.2-20.3-11.7-27.9
			c-5.5-7.5-20-10.7-22.9-19.8c-2.8-8.7,6.9-19.8,6.9-29.5c0-9.7-9.8-20.8-6.9-29.5c2.9-9,17.5-12.2,22.9-19.8
			c5.5-7.6,4.1-22.4,11.7-27.9c6-4.4,16-1.5,24.4-1.7h0.1c8.4,0.2,18.4-2.7,24.4,1.7c7.6,5.5,6.2,20.3,11.7,27.9
			c5.5,7.5,20,10.8,22.9,19.8C198.8,349.9,189.1,361,189.1,370.7z"/>
		<g id="XMLID_1765_">
			<path id="XMLID_2305_" class="st45" d="M331.9,406.8c-6.3,7.4-6,22.2-13.8,27c-8.1,5-21.2-2-30.3,0.2c-9.1,2.2-17.7,14.4-27,13.7
				c-9.3-0.7-15.9-14-24.6-17.6c-0.2-0.1-0.5-0.2-0.7-0.3c-8.5-3-22,1.5-29.2-4.6c-7.4-6.3-4.8-20.9-9.6-28.7
				c-5-8.1-19.2-12.4-21.3-21.5c-2.2-9.1,8.4-19.5,9.1-28.9c0.7-9.3-8.3-21.1-4.7-29.9c3.5-8.5,18.1-10.6,24.4-18
				c6.3-7.4,6-22.2,13.8-27c8.1-5,21.2,2,30.3-0.2c9.1-2.2,17.7-14.4,27-13.7c9.3,0.7,15.9,14,24.6,17.6c8.5,3.5,22.5-1.4,29.9,4.8
				c7.2,6.1,4.9,20.1,9.2,28c0.1,0.2,0.2,0.4,0.4,0.7c5,8.1,19.2,12.4,21.3,21.5c2.2,9.1-8.4,19.5-9.1,28.9
				c-0.7,9.3,8.3,21.1,4.7,29.9C352.8,397.3,338.1,399.4,331.9,406.8z"/>
			<path id="XMLID_2297_" class="st20" d="M331.9,406.8c-6.3,7.4-6,22.2-13.8,27c-8.1,5-21.2-2-30.3,0.2c-9.1,2.2-17.7,14.4-27,13.7
				c-9.3-0.7-15.9-14-24.6-17.6c-0.2-0.1-0.5-0.2-0.7-0.3c-0.1-0.2-0.2-0.4-0.4-0.7c-5-8.1-19.1-12.4-21.3-21.5
				c-2.2-9.1,8.4-19.5,9.1-28.9c0.7-9.3-8.3-21.1-4.7-29.9c3.5-8.5,18.1-10.6,24.4-18c6.3-7.4,6-22.2,13.8-27c8.1-5,21.2,2,30.3-0.2
				c9.1-2.2,17.6-14.4,27-13.7c9.3,0.7,15.9,14,24.6,17.6c0.2,0.1,0.5,0.2,0.7,0.3c0.1,0.2,0.2,0.4,0.4,0.7
				c5,8.1,19.2,12.4,21.3,21.5c2.2,9.1-8.4,19.5-9.1,28.9c-0.7,9.3,8.3,21.1,4.7,29.9C352.8,397.3,338.1,399.4,331.9,406.8z"/>
			<path id="XMLID_2160_" class="st3" d="M357.6,340.1c-10,2.5-19.3-0.4-20.8-6.4c-1.5-6,5.4-12.9,15.4-15.4
				c10-2.5,20.8,6.4,20.8,6.4S367.6,337.6,357.6,340.1z"/>
			<path id="XMLID_1921_" class="st45" d="M291.7,374.8c-7.2-7.4-9.5-16.8-5.1-21.2s13.8-1.9,21.1,5.5c7.2,7.4,5.1,21.2,5.1,21.2
				S298.9,382.1,291.7,374.8z"/>
			<path id="XMLID_1918_" class="st52" d="M301.7,296.5c3.1,9.8,0.9,19.3-5,21.2c-5.9,1.9-13.2-4.6-16.3-14.4
				c-3.1-9.8,5-21.2,5-21.2S298.5,286.7,301.7,296.5z"/>
			<path id="XMLID_1914_" class="st52" d="M245.3,328.5c9.2,4.6,14.4,12.8,11.7,18.4s-12.5,6.3-21.7,1.6s-11.7-18.4-11.7-18.4
				S236,323.9,245.3,328.5z"/>
			<path id="XMLID_1913_" class="st52" d="M256.8,262.5c1.9,10.1-1.5,19.3-7.6,20.4c-6.1,1.1-12.5-6.2-14.4-16.3
				c-1.9-10.1,7.6-20.4,7.6-20.4S254.9,252.4,256.8,262.5z"/>
			<path id="XMLID_1766_" class="st52" d="M202,284.7c9.3,4.4,14.7,12.6,12,18.1c-2.7,5.6-12.4,6.5-21.7,2.1
				c-9.3-4.4-12-18.1-12-18.1S192.7,280.3,202,284.7z"/>
		</g>
		<path id="XMLID_2485_" class="st78" d="M477.4,384.6c-8.9,15.3-19.4,29.7-31.2,42.8c-0.8,0.9-1.6,1.8-2.4,2.7l-2.2,2.4
			c-3.9,4.1-7.9,8-12.1,11.9c-5.3-1.2-9.9-4-13.2-8c-5.9,8.5-15.6,14.2-26.6,14.8c-0.6,0-1.3,0.1-2,0.1c-1.1,0-2.2,0-3.3-0.2
			c-1.5-0.1-3-0.4-4.5-0.7c-0.9-0.2-1.8-0.4-2.6-0.7c-3-0.9-5.9-2.3-8.5-4c-2,1.9-4.4,3.4-7,4.7c-3.3,1.6-7,2.8-11.1,3.4
			c-2.9,0.5-6,0.7-9.2,0.6c-2.3,0-4.6-0.2-7-0.5c-6.3-0.9-12.9-2.7-19.3-5.6c-8.3-3.8-15.5-8.8-21-14.5c-0.6-0.6-1.2-1.2-1.7-1.8
			c-0.3-0.3-0.6-0.7-0.9-1c-0.2-0.3-0.4-0.5-0.7-0.8c-0.9-1.1-1.8-2.3-2.6-3.5c-1.3-1.9-2.4-3.7-3.3-5.6c-4-8.1-4.7-16.6-1.4-23.9
			c1.4-3.1,3.5-5.9,6-8.1c2.4-2.1,5.2-3.8,8.4-5.1c6.8-2.9,15.3-3.8,24.3-2.8c6.6,0.8,13.6,2.7,20.4,5.8c3.9,1.8,7.5,3.8,10.8,6
			c1.7,1.2,3.4,2.4,4.9,3.7c0.5,0.4,0.9,0.7,1.3,1.1c4.1-5.5,10-9.8,16.8-12c2.4-0.8,5-1.4,7.7-1.6c1.1-0.1,2.3-0.2,3.4-0.2
			c3,0,5.9,0.4,8.7,1.1c10.2,2.6,18.6,9.6,22.8,18.9c4.2-3.6,9.7-5.7,15.6-5.7c7.1,0,13.4,3,17.8,7.7c0.9-2.3,2-4.4,3.3-6.4
			C460.6,392,468.3,386.6,477.4,384.6z"/>
		<path id="XMLID_2572_" class="st78" d="M246.7,417.4c0,0.6,0,1.3-0.1,1.9c-0.1,2.1-0.4,4.1-0.9,6.1c-0.2,0.6-0.3,1.2-0.5,1.7
			c-0.4,1.2-0.8,2.4-1.3,3.5c-0.5,1.1-1.1,2.2-1.7,3.3c-0.9,1.6-1.9,3-3.1,4.4c0,0-0.1,0.1-0.1,0.1c-0.1,0.2-0.3,0.3-0.4,0.5
			c-0.5,0.6-1.1,1.2-1.6,1.7c-6.3,6.3-15.1,10.3-24.8,10.3c-6.1,0-11.8-1.5-16.7-4.2c-0.1-0.1-0.1-0.1-0.2-0.1
			c-1.2-0.7-2.4-1.4-3.5-2.2c-4.7-3.4-8.4-7.8-10.9-13c-0.3,0.7-0.7,1.4-1.1,2c-0.2,0.3-0.4,0.6-0.6,0.9c0,0.1-0.1,0.1-0.1,0.2
			c-3.3,4.8-8.4,8.3-14.4,9.6c-0.5,0.1-1,0.2-1.6,0.3c-1.1,0.2-2.3,0.3-3.5,0.3c-0.1,0-0.2,0-0.3,0c-7.2,0-13.5-3.1-17.9-7.9
			c-0.4-0.4-0.8-0.9-1.2-1.4c-3.4,5.1-8.1,9.3-13.8,12c-1.7,0.8-3.5,1.5-5.4,2.1c-0.6,0.2-1.1,0.3-1.7,0.5c-2.6,0.6-5.4,1-8.2,1
			c-9.6,0-18.4-3.9-24.6-10.1c-1.3-1.3-2.5-2.7-3.5-4.1c-0.4-0.5-0.8-1.1-1.1-1.6c-1.1-1.6-2-3.4-2.7-5.2c-2.3,1.3-4.8,2.5-7.5,3.5
			c-0.4-0.4-0.7-0.7-1.1-1.1c-0.7-0.8-1.5-1.6-2.2-2.4c-8.4-9-16.1-18.7-23.2-28.9c0,0-0.1-0.1-0.1-0.1c-0.8-1.1-1.5-2.2-2.3-3.4
			c-0.1-0.2-0.2-0.3-0.3-0.5c-5.1-7.8-9.9-15.8-14.1-24.1c5.8-1.6,12.1-2.4,18.6-2.4c4.8,0,9.4,0.4,13.7,1.3
			c8.3,1.6,15.7,4.6,21.6,8.7c3.1,2.1,5.8,4.5,8,7.2c0.5,0.6,1,1.2,1.4,1.8c0.5-0.3,1-0.7,1.5-1c5.2-3.1,11.3-4.8,17.9-4.8
			c13.8,0,25.8,7.9,31.2,19.4c0.2,0.4,0.4,0.8,0.5,1.2c4.3-3.9,10-6.3,16.4-6.3h0.3c1,0,2,0.1,2.9,0.2c6.6,0.9,12.3,4.3,16,9.3
			c0.2,0.2,0.3,0.4,0.4,0.6c0,0,0,0.1,0.1,0.1c0-0.1,0.1-0.2,0.1-0.4c2.1-6.9,6.4-12.9,12.1-17.1c1.1-0.8,2.3-1.6,3.5-2.3
			c5.1-2.9,11.1-4.6,17.5-4.6c3.1,0,6.2,0.4,9.1,1.2c2.4,0.6,4.6,1.5,6.8,2.6c4.9,2.4,9.1,6,12.2,10.3
			C244.3,403.4,246.7,410.1,246.7,417.4z"/>
		<g id="XMLID_1691_">
			<path id="XMLID_1693_" class="st2" d="M281.2,216.1c-5.4,15.7-19.1,20.3-31.9,20.3c-4.1,0-8-0.5-11.6-1.2
				c-5.5,12.5-14.5,22.8-26,29.7c6.3,6.2,17,14.8,28.9,16.3c7.5,0.9,14.4-1.2,21-6.4c2.2-1.7,5.3-1.3,7,0.8c1.7,2.2,1.3,5.3-0.8,7
				c-7.3,5.8-15.3,8.8-23.8,8.8c-1.5,0-3.1-0.1-4.6-0.3c-16.5-2-30.4-14.4-37.1-21.5L175,280.8l5.5,180.3h-40l4-131.9l-60.7-33.4
				c-8.2-4.5-15.2-11.1-20.2-19.1l-1.8-2.8c-2.5,0.3-5.5,0.5-8.7,0.5c-11.2,0-25.3-2.9-30.2-16.4c-0.9-2.6,0.4-5.5,3-6.4
				c2.6-1,5.5,0.4,6.4,3c3.2,8.9,14.9,10.1,23.5,9.7l-24.6-39.1c-2.2-3.5-1.2-8.1,2.4-10.3c3.5-2.2,8.1-1.1,10.3,2.4l17.7,28.2
				l19.3-25.7c1.7-2.2,4.8-2.7,7-1c2.2,1.7,2.6,4.8,1,7l-21.6,28.7l9,14.2c3.7,5.8,8.8,10.6,14.8,13.9l54,29.7l3.4-112
				c-6.2-1.7-14.3-4.4-23-8.9c-23.9-12.4-40.4-31.9-47.7-56.6c-1.2-4,1.1-8.2,5.1-9.3c4-1.2,8.1,1.1,9.3,5.1
				c3.4,11.5,9,21.4,16.7,29.9c5.9-7.2,11.6-16.2,11.3-20.9c-0.2-2.8,2-5.1,4.7-5.3c2.8-0.2,5.1,1.9,5.3,4.7
				c0.5,9.1-8.1,21.1-14.1,28.4c4.7,3.9,9.9,7.5,15.8,10.5c6.2,3.2,12.2,5.5,17.1,7l1.3-42.2c0.2-5.2,4.2-9.5,9.3-10
				c0.3,0,0.7,0,1,0c5.6,0,10.1,4.4,10.3,10l1,31.8l16-10.2c3.5-2.2,6-5.6,7-9.6l6.5-25.3l19-9.9c2.5-1.3,5.5-0.3,6.8,2.1
				c1.3,2.5,0.3,5.5-2.1,6.8l-15,7.8l-5.4,21c-1.6,6.5-5.7,12-11.3,15.6l-21,13.4l2.4,78.6l22.4-9.2c12.2-5,21.8-14.5,27.1-26.5
				l12.6-28.8c1.7-3.8,6.1-5.5,9.9-3.9c3.8,1.7,5.5,6.1,3.9,9.9l-8.5,19.5c9.5,1.5,24.9,1.5,29.9-12.9c0.9-2.6,3.8-4,6.4-3.1
				C280.7,210.6,282.1,213.4,281.2,216.1z"/>
			<path id="XMLID_1692_" class="st51" d="M159.5,132.8v328.3h-19l4-131.9l-60.7-33.4c-8.2-4.5-15.2-11.1-20.2-19.1l-1.8-2.8
				c-2.5,0.3-5.5,0.5-8.7,0.5c-11.2,0-25.3-2.9-30.2-16.4c-0.9-2.6,0.4-5.5,3-6.4c2.6-1,5.5,0.4,6.4,3c3.2,8.9,14.9,10.1,23.5,9.7
				l-24.6-39.1c-2.2-3.5-1.2-8.1,2.4-10.3c3.5-2.2,8.1-1.1,10.3,2.4l17.7,28.2l19.3-25.7c1.7-2.2,4.8-2.7,7-1c2.2,1.7,2.6,4.8,1,7
				l-21.6,28.7l9,14.2c3.7,5.8,8.8,10.6,14.8,13.9l54,29.7l3.4-112c-6.2-1.7-14.3-4.4-23-8.9c-23.9-12.4-40.4-31.9-47.7-56.6
				c-1.2-4,1.1-8.2,5.1-9.3c4-1.2,8.1,1.1,9.3,5.1c3.4,11.5,9,21.4,16.7,29.9c5.9-7.2,11.6-16.2,11.3-20.9c-0.2-2.8,2-5.1,4.7-5.3
				c2.8-0.2,5.1,1.9,5.3,4.7c0.5,9.1-8.1,21.1-14.1,28.4c4.7,3.9,9.9,7.5,15.8,10.5c6.2,3.2,12.2,5.5,17.1,7l1.3-42.2
				C150.4,137.6,154.4,133.3,159.5,132.8z"/>
		</g>
		<g id="XMLID_1687_">
			<path id="XMLID_1690_" class="st2" d="M498.3,181c-5.4,15.7-19.1,20.3-31.9,20.3c-4.1,0-8-0.5-11.6-1.2
				c-5.5,12.5-14.5,22.8-26,29.7c6.3,6.2,17,14.8,28.9,16.3c7.5,0.9,14.4-1.2,21-6.4c2.2-1.7,5.3-1.3,7,0.8c1.7,2.2,1.3,5.3-0.8,7
				c-7.3,5.8-15.3,8.8-23.8,8.8c-1.5,0-3.1-0.1-4.6-0.3c-16.5-2-30.4-14.4-37.1-21.5L392,245.7l5.5,180.3h-40l4-131.9l-60.7-33.4
				c-8.2-4.5-15.2-11.1-20.2-19.1l-1.8-2.8c-2.5,0.3-5.5,0.5-8.7,0.5c-11.2,0-25.3-2.9-30.2-16.4c-0.9-2.6,0.4-5.5,3-6.4
				c2.6-1,5.5,0.4,6.4,3c3.2,8.9,14.9,10.1,23.5,9.7l-24.6-39.1c-2.2-3.5-1.2-8.1,2.4-10.3c3.5-2.2,8.1-1.1,10.3,2.4l17.7,28.2
				l19.3-25.7c1.7-2.2,4.8-2.7,7-1c2.2,1.7,2.6,4.8,1,7l-21.6,28.7l9,14.2c3.7,5.8,8.8,10.6,14.8,13.9l54,29.7l3.4-112
				c-6.2-1.7-14.3-4.4-23-8.9c-23.9-12.4-40.4-31.9-47.7-56.6c-1.2-4,1.1-8.2,5.1-9.3c4-1.2,8.1,1.1,9.3,5.1
				c3.4,11.5,9,21.4,16.7,29.9c5.9-7.2,11.6-16.2,11.3-20.9c-0.2-2.8,2-5.1,4.7-5.3c2.8-0.2,5.1,1.9,5.3,4.7
				c0.5,9.1-8.1,21.1-14.1,28.4c4.7,3.9,9.9,7.5,15.8,10.5c6.2,3.2,12.2,5.5,17.1,7l1.3-42.2c0.2-5.2,4.2-9.5,9.3-10
				c0.3,0,0.7,0,1,0c5.6,0,10.1,4.4,10.3,10l1,31.8l16-10.2c3.5-2.2,6-5.6,7-9.6l6.5-25.3l19-9.9c2.5-1.3,5.5-0.3,6.8,2.1
				c1.3,2.5,0.3,5.5-2.1,6.8l-15,7.8l-5.4,21c-1.6,6.5-5.7,12-11.3,15.6l-21,13.4l2.4,78.6l22.4-9.2c12.2-5,21.8-14.5,27.1-26.5
				l12.6-28.8c1.7-3.8,6.1-5.5,9.9-3.9c3.8,1.7,5.5,6.1,3.9,9.9l-8.5,19.5c9.5,1.5,24.9,1.5,29.9-12.9c0.9-2.6,3.8-4,6.4-3.1
				C497.8,175.5,499.2,178.4,498.3,181z"/>
			<path id="XMLID_1689_" class="st51" d="M376.5,97.8v328.3h-19l4-131.9l-60.7-33.4c-8.2-4.5-15.2-11.1-20.2-19.1l-1.8-2.8
				c-2.5,0.3-5.5,0.5-8.7,0.5c-11.2,0-25.3-2.9-30.2-16.4c-0.9-2.6,0.4-5.5,3-6.4c2.6-1,5.5,0.4,6.4,3c3.2,8.9,14.9,10.1,23.5,9.7
				l-24.6-39.1c-2.2-3.5-1.2-8.1,2.4-10.3c3.5-2.2,8.1-1.1,10.3,2.4l17.7,28.2l19.3-25.7c1.7-2.2,4.8-2.7,7-1c2.2,1.7,2.6,4.8,1,7
				l-21.6,28.7l9,14.2c3.7,5.8,8.8,10.6,14.8,13.9l54,29.7l3.4-112c-6.2-1.7-14.3-4.4-23-8.9c-23.9-12.4-40.4-31.9-47.7-56.6
				c-1.2-4,1.1-8.2,5.1-9.3c4-1.2,8.1,1.1,9.3,5.1c3.4,11.5,9,21.4,16.7,29.9c5.9-7.2,11.6-16.2,11.3-20.9c-0.2-2.8,2-5.1,4.7-5.3
				c2.8-0.2,5.1,1.9,5.3,4.7c0.5,9.1-8.1,21.1-14.1,28.4c4.7,3.9,9.9,7.5,15.8,10.5c6.2,3.2,12.2,5.5,17.1,7l1.3-42.2
				C367.4,102.5,371.4,98.3,376.5,97.8z"/>
		</g>
		<path id="XMLID_2540_" class="st124" d="M444.7,426.7c0.5,0.2,1,0.4,1.4,0.7c-0.8,0.9-1.6,1.8-2.4,2.7l-2.2,2.4
			c-3.9,4.1-7.9,8-12.1,11.9c-0.9,0.8-1.8,1.6-2.7,2.4c-7.3,6.5-14.9,12.6-22.9,18.3c-6.3,4.4-12.7,8.6-19.4,12.5
			c-5.8-0.5-11.2-2.4-15.8-5.4c-5.9,5.5-14.8,8.5-24.9,8.7c-3.4,0.1-6.9-0.1-10.5-0.7c-6-0.9-12.1-2.7-18.2-5.5
			c-5.6-2.5-10.6-5.6-15-9.1c-0.1-0.1-0.2-0.1-0.2-0.2c-1.9-1.5-3.7-3.1-5.3-4.8c-1-1-1.9-2-2.8-3c-5.6-6.6-9.1-13.8-10-20.8
			c-0.1-0.6-0.1-1.1-0.2-1.7c-0.1-1-0.1-2,0-2.9c0.1-1.6,0.3-3.2,0.8-4.8c0.3-1.2,0.8-2.5,1.3-3.7c0.4-0.9,0.9-1.8,1.4-2.6
			c1.4-2.3,3.3-4.4,5.4-6.1c3.9-3.2,8.9-5.4,14.6-6.6c5.8-1.2,12.4-1.4,19.2-0.4c2,0.3,4.1,0.7,6.1,1.2c3.1,0.8,6.2,1.8,9.4,3
			c1,0.4,2,0.8,3,1.3c5.6,2.5,10.6,5.6,14.9,9c0.7,0.6,1.4,1.2,2.1,1.8c4.1-5.5,10-9.8,16.8-12c3.5-1.2,7.2-1.8,11.1-1.8
			c3.3,0,6.5,0.4,9.5,1.3c9.9,2.7,17.9,9.7,22,18.7c4.2-3.6,9.7-5.7,15.7-5.7C438.3,424.6,441.7,425.3,444.7,426.7z"/>
		<path id="XMLID_2564_" class="st124" d="M239.5,444c0,2.8-0.3,5.4-1,8c-0.8,3.1-2,6-3.5,8.7c-2.7,4.7-6.6,8.7-11.2,11.6
			c-3.8,2.4-8.2,4.2-12.9,4.9c-1.9,0.3-3.9,0.5-5.9,0.5c-3,0-5.9-0.4-8.6-1c-6.9-1.7-12.9-5.5-17.4-10.5c-1.4-1.5-2.6-3.2-3.6-4.9
			c-0.1-0.2-0.2-0.4-0.4-0.6c-0.5-0.8-0.9-1.7-1.4-2.6c-0.4,0.9-0.9,1.7-1.5,2.6c-0.1,0.2-0.3,0.4-0.4,0.6
			c-3.2,4.6-8.1,8.1-13.9,9.5c-1.9,0.5-3.9,0.7-5.9,0.7c-4.5,0-8.7-1.2-12.3-3.3c-2.6-1.5-4.9-3.6-6.8-5.9
			c-3.1,4.7-7.3,8.5-12.2,11.3c-4-2.5-8-5.1-11.9-7.9c-12.1-8.5-23.3-18-33.7-28.4c-1.2-1.2-2.4-2.4-3.5-3.6
			c-0.4-0.4-0.7-0.7-1.1-1.1c-0.7-0.8-1.5-1.6-2.2-2.4c-8.4-9-16.1-18.7-23.2-28.9c0,0-0.1-0.1-0.1-0.1c-0.8-1.1-1.5-2.2-2.3-3.4
			c-0.1-0.2-0.2-0.3-0.3-0.5c1.1,0,2.2,0.1,3.2,0.2c5.4,0.4,10.5,1.4,15.2,2.9c3.7,1.2,7.1,2.6,10.3,4.4c5.6,3.1,10.2,7,13.4,11.5
			c0.7-0.5,1.5-0.9,2.2-1.4c1.5-0.8,3.1-1.6,4.7-2.2c0.5-0.2,0.9-0.3,1.4-0.5c3.4-1.2,7.2-1.8,11-1.8c2,0,4,0.2,5.9,0.5
			c11.7,2,21.4,9.7,25.9,20.1c1.7-1.6,3.7-2.9,5.8-3.9c1-0.5,2.1-0.9,3.1-1.2c2.3-0.7,4.8-1.1,7.4-1.1c2,0,4,0.2,5.9,0.7
			c0.5,0.1,1,0.3,1.6,0.4c3.5,1.1,6.7,3,9.3,5.5c0.3,0.3,0.6,0.6,0.9,0.9c0.8,0.8,1.5,1.6,2.1,2.5c0,0,0,0.1,0,0.1
			c0-0.1,0.1-0.2,0.1-0.3c0.5-1.8,1.2-3.4,2-5.1v0c0.4-0.7,0.7-1.4,1.2-2.1c1.2-2.1,2.6-4,4.2-5.7c3.2-3.5,7.1-6.3,11.4-8.2
			c3-1.3,6.2-2.3,9.6-2.7c1.5-0.2,3.1-0.3,4.7-0.3c2,0,4,0.2,5.9,0.5c1.6,0.3,3.2,0.7,4.8,1.1c0,0,0.1,0,0.1,0
			c5.5,1.8,10.5,4.9,14.3,8.9c1.4,1.5,2.8,3.1,3.9,4.9c0.9,1.4,1.8,2.9,2.4,4.4c0.1,0.2,0.2,0.3,0.2,0.5c1,2.3,1.8,4.8,2.2,7.3
			c0,0.2,0.1,0.3,0.1,0.5c0.2,1.1,0.3,2.2,0.4,3.4C239.5,442.6,239.5,443.3,239.5,444z"/>
		<path id="XMLID_2589_" class="st124" d="M251.3,444c0,1.6-0.1,3.3-0.4,4.9c-0.6,4.2-2.1,8.2-4.1,11.8c-2.2,3.9-5.2,7.2-8.8,9.9
			c-0.8,0.6-1.6,1.1-2.4,1.7c-1,0.6-2,1.2-3,1.7c-4.7,2.4-10.1,3.7-15.8,3.7c-2,0-4-0.2-5.9-0.5c-0.9-0.1-1.8-0.3-2.7-0.5
			c-2.1-0.5-4.2-1.3-6.1-2.2c-6.4-3-11.8-7.8-15.3-13.8c-0.5-0.8-0.9-1.7-1.3-2.6c-0.4,0.9-0.9,1.7-1.5,2.6c-1.4,2.1-3,3.9-5,5.5
			c-4.1,3.3-9.4,5.3-15.2,5.3c-2,0-4-0.2-5.9-0.7c-5.3-1.3-10-4.4-13.2-8.5c-1.4,2.2-3.1,4.2-5,5.9c-4,3.8-8.9,6.6-14.3,8.2
			c-1.6-0.9-3.2-1.9-4.7-2.9c-4-2.5-8-5.1-11.9-7.9c-12.1-8.5-23.3-18-33.7-28.4c-1.2-1.2-2.4-2.4-3.5-3.6c-0.4-0.4-0.7-0.7-1.1-1.1
			c-0.7-0.8-1.5-1.6-2.2-2.4c-8.4-9-16.1-18.7-23.2-28.9c0,0-0.1-0.1-0.1-0.1c-0.8-1.1-1.5-2.2-2.3-3.4c0.9-0.1,1.9-0.2,2.9-0.3
			c1.9-0.1,3.9-0.2,5.9-0.2c7.5,0,14.6,1.1,21,3.1c2.2,0.7,4.3,1.5,6.4,2.4c1.4,0.6,2.7,1.2,3.9,1.9c3.9,2.1,7.2,4.6,10,7.4
			c1,1,2,2.1,2.8,3.2c0,0,0,0,0,0c0.2,0.3,0.4,0.5,0.6,0.8c0.1-0.1,0.2-0.1,0.3-0.2c0.6-0.4,1.3-0.8,2-1.2c3.4-1.9,7.2-3.3,11.3-4
			c1.9-0.3,3.9-0.5,5.9-0.5c10.4,0,19.7,4.5,26,11.5c1.1,1.2,2.1,2.5,3,3.9c1.1,1.6,2,3.4,2.8,5.2c2.9-2.6,6.5-4.6,10.5-5.6
			c0.5-0.1,1-0.2,1.6-0.3c1.4-0.3,2.9-0.4,4.3-0.4c2.3,0,4.5,0.3,6.5,0.9c1.7,0.4,3.2,1.1,4.7,1.8c1.6,0.8,3.1,1.8,4.5,3
			c0.7,0.6,1.3,1.2,1.9,1.8c0.8,0.8,1.5,1.6,2.1,2.5c0,0,0,0.1,0,0.1c0-0.1,0-0.2,0.1-0.3c0.5-1.8,1.2-3.4,2-5.1v0
			c2.7-5.4,6.8-10,11.8-13.4c1.1-0.7,2.2-1.4,3.4-2c3.1-1.6,6.4-2.7,10-3.3c1.2-0.2,2.5-0.4,3.8-0.4c0.7,0,1.4-0.1,2.1-0.1
			c3.7,0,7.3,0.6,10.7,1.6c4.5,1.4,8.6,3.7,12.1,6.7c0.8,0.7,1.6,1.5,2.4,2.3c1.4,1.4,2.6,2.9,3.7,4.6c0.4,0.6,0.8,1.2,1.2,1.9
			c0.6,1.1,1.2,2.2,1.7,3.3c1.5,3.4,2.5,7.2,2.7,11.1c0,0.3,0,0.6,0,0.9C251.3,443.2,251.3,443.6,251.3,444z"/>
		<g id="XMLID_851_">
			<path id="XMLID_867_" class="st2" d="M429.4,142.4c-1.8,5.1-4.1,9.3-7,12.8c-9.2,11.2-23.2,14.9-36.4,14.9
				c-5.5,0-10.9-0.6-15.8-1.6c-7.5,17-19.8,31-35.4,40.4c8.5,8.4,23.1,20.2,39.4,22.2c10.3,1.2,19.6-1.6,28.6-8.7
				c3-2.3,7.2-1.8,9.6,1.1c2.3,2.9,1.8,7.2-1.1,9.5c-10,7.9-20.9,11.9-32.4,11.9c-2.1,0-4.2-0.1-6.3-0.4
				c-22.5-2.8-41.4-19.6-50.5-29.2l-4.5,1.9l-32.7,13.4l7.5,245.4h-54.5l5.5-179.5l-82.7-45.4c-11.2-6.2-20.7-15.2-27.6-26l-2.4-3.9
				c-3.3,0.4-7.4,0.8-11.9,0.8c-15.2,0-34.4-3.9-41.2-22.2c-1.3-3.5,0.5-7.4,4.1-8.7c3.5-1.3,7.5,0.5,8.7,4
				c4.4,12.1,20.2,13.7,32,13.2L89,155c-3-4.8-1.6-11.1,3.2-14.1c4.8-3,11.1-1.6,14.1,3.2l24.1,38.3l26.3-35c2.3-3,6.5-3.6,9.5-1.3
				c3,2.3,3.6,6.5,1.3,9.5l-29.4,39.1l12.2,19.4c5,7.9,11.9,14.5,20.1,18.9l73.5,40.4l4.6-152.4c-8.4-2.3-19.5-6.1-31.4-12.2
				c-32.5-16.8-55-43.5-64.9-77c-1.6-5.4,1.5-11.1,6.9-12.7c5.4-1.6,11.1,1.5,12.7,6.9c4.6,15.6,12.2,29.2,22.7,40.6
				c8-9.8,15.8-22,15.4-28.4c-0.2-3.7,2.7-7,6.4-7.2c3.8-0.2,7,2.7,7.2,6.4c0.7,12.4-11,28.8-19.1,38.6c6.4,5.4,13.5,10.2,21.5,14.3
				c8.4,4.4,16.5,7.5,23.2,9.5l1.8-57.4c0.2-7.1,5.7-12.9,12.7-13.5c0.5,0,0.9-0.1,1.4-0.1c7.6,0,13.8,6,14,13.6l1.3,43.2L302.1,72
				c4.7-3,8.1-7.7,9.5-13.1l8.8-34.5l25.8-13.5c3.3-1.8,7.4-0.5,9.2,2.9c1.7,3.3,0.5,7.4-2.9,9.2l-20.5,10.7l-7.3,28.6
				c-2.2,8.8-7.7,16.3-15.4,21.2l-28.6,18.2l3.3,107l30.5-12.5c2.3-1,4.6-2,6.8-3.2c13.4-7.3,23.9-18.7,30.1-32.9l17.1-39.2
				c2.3-5.2,8.3-7.5,13.4-5.3c5.2,2.3,7.5,8.3,5.3,13.4l-11.6,26.5c13,2.1,33.9,2.1,40.7-17.6c0.4-1.1,1-2,1.8-2.7
				c1.8-1.7,4.4-2.4,6.9-1.5C428.7,135,430.6,138.8,429.4,142.4z"/>
			<path id="XMLID_866_" class="st51" d="M263.7,29.1V476h-25.9l5.5-179.5l-82.7-45.4c-11.2-6.2-20.7-15.1-27.6-26l-2.4-3.9
				c-3.3,0.4-7.4,0.7-11.9,0.7c-15.2,0-34.4-3.9-41.2-22.3c-1.3-3.5,0.5-7.4,4.1-8.7c3.5-1.3,7.4,0.5,8.7,4.1
				c4.4,12.1,20.2,13.7,32,13.2L89,155c-3-4.8-1.6-11.1,3.2-14.1c4.8-3,11.1-1.6,14.1,3.2l24.1,38.3l26.3-35c2.3-3,6.5-3.6,9.5-1.3
				c3,2.3,3.6,6.5,1.3,9.5l-29.4,39.1l12.2,19.4c5,7.9,11.9,14.5,20.1,18.9l73.5,40.4l4.6-152.4c-8.4-2.3-19.5-6-31.3-12.2
				c-32.5-16.8-55-43.5-64.9-77.1c-1.6-5.4,1.5-11.1,6.9-12.7c5.4-1.6,11.1,1.5,12.7,6.9c4.6,15.6,12.2,29.2,22.7,40.6
				c8-9.9,15.8-22,15.4-28.4c-0.2-3.7,2.7-7,6.4-7.2c3.8-0.2,7,2.7,7.2,6.4c0.7,12.4-11,28.8-19.1,38.6c6.4,5.4,13.5,10.2,21.5,14.3
				c8.4,4.4,16.5,7.5,23.2,9.5l1.8-57.4C251.3,35.5,256.7,29.8,263.7,29.1z"/>
		</g>
		<path id="XMLID_2558_" class="st183" d="M426.8,446.7c-7.3,6.5-14.9,12.6-22.9,18.3c-6.3,4.4-12.7,8.6-19.4,12.5
			c-4.1,2.4-8.4,4.7-12.7,6.9c-5.9,3-11.9,5.8-18,8.3C323.6,505.1,290.6,512,256,512c-40.7,0-79.1-9.5-113.2-26.4
			c-0.9-0.4-1.7-0.8-2.5-1.3c-5-2.5-9.9-5.3-14.8-8.1c-1.6-0.9-3.2-1.9-4.7-2.9c-4-2.5-8-5.1-11.9-7.9c-12.1-8.5-23.3-18-33.7-28.4
			c0.2-0.1,0.4-0.2,0.7-0.2c0.3-0.1,0.6-0.2,1-0.3c1.6-0.6,3.3-1,5-1.3c2.5-0.5,5.1-0.8,7.8-0.8c6.2,0,12,1.4,17.2,3.9
			c4.7,2.2,9,5.4,12.5,9.3c0.6,0.7,1.2,1.4,1.8,2.1c0.2,0.2,0.3,0.4,0.5,0.6c1,1.3,2,2.7,2.8,4.2c0.8,1.4,1.6,2.9,2.2,4.4
			c4.2-3.3,9.1-5.8,14.4-7.2c2.9-0.8,6-1.3,9.1-1.4h0c0.3,0,0.6,0,0.8,0c0.2,0,0.3,0,0.5,0c0.6,0,1.1,0,1.7,0h0
			c2.2,0.1,4.4,0.4,6.5,0.8c6.1,1.2,11.6,3.9,16.3,7.5c1.4-1.8,2.8-3.5,4.4-5.2c2.4-2.5,5-4.7,7.8-6.6c0.3-0.2,0.6-0.4,0.9-0.6
			c0,0,0,0,0,0c0.9-0.6,1.8-1.1,2.7-1.6c7.8-4.6,16.8-7.1,26.5-7.1c4.6,0,9,0.6,13.3,1.7c1.9,0.5,3.7,1.1,5.5,1.7
			c0.7,0.2,1.3,0.5,1.9,0.8c0.2,0.1,0.4,0.2,0.6,0.2c4.1,1.8,8,4.2,11.5,7c2,1.6,3.8,3.3,5.6,5.1c1.7-2.2,3.6-4.3,5.6-6.2
			c0.5-0.5,1.1-1,1.6-1.5c5.2-4.7,11.2-8.5,17.9-11.2c3-1.2,6.1-2.2,9.4-2.9c0.1,0,0.2-0.1,0.3-0.1c0.4-0.1,0.8-0.2,1.2-0.2
			c2.9-0.6,5.8-0.9,8.8-1c0.8,0,1.6-0.1,2.4-0.1c5.4,0,10.7,0.7,15.7,2.1c5.1,1.4,9.9,3.4,14.4,6.1c6.5,3.8,12.2,8.9,16.9,14.8
			c0.2,0.2,0.3,0.4,0.5,0.6c1.4,1.8,2.7,3.8,3.9,5.8c6.7-5.9,15.3-9.5,24.8-9.9c0.5,0,1,0,1.6,0c0.3,0,0.6,0,0.9,0
			c2.5,0.1,4.9,0.3,7.3,0.8c5.5,1.1,10.6,3.4,15.1,6.6C410,451.3,417.9,447.1,426.8,446.7z"/>
		<path id="XMLID_2455_" class="st120" d="M353.8,492.7C323.6,505.1,290.6,512,256,512c-40.7,0-79.1-9.5-113.2-26.4
			c2.8-0.6,5.6-0.9,8.5-0.9c9.2,0,17.8,3.1,24.5,8.4c5.3-7.1,12.4-12.8,20.6-16.5c1.8-0.8,3.7-1.6,5.7-2.2
			c5.1-1.6,10.5-2.5,16.1-2.5c1.9,0,3.8,0.1,5.6,0.3c3,0.3,5.9,0.9,8.8,1.7c1.8,0.5,3.5,1.1,5.2,1.8c0.2,0.1,0.4,0.2,0.7,0.3
			c0,0,0,0,0,0c6.8,2.9,13,7.1,18,12.4c3.7-4.8,8.1-9,13.1-12.4c6.6-4.6,14.2-7.9,22.4-9.6c2.6-0.5,5.2-0.9,7.9-1
			c1.2-0.1,2.5-0.1,3.8-0.1c2.1,0,4.1,0.1,6.2,0.3c12.6,1.3,24.1,6.6,33.2,14.5c0.3,0.2,0.5,0.4,0.8,0.7
			C347.6,484.3,351,488.3,353.8,492.7z"/>
		<path id="XMLID_839_" class="st215" d="M334.8,208.8c8.5,8.4,23.1,20.2,39.4,22.2c10.3,1.2,19.6-1.6,28.6-8.7
			c3-2.3,7.2-1.8,9.6,1.1c2.3,2.9,1.8,7.2-1.1,9.5c-10,7.9-20.9,11.9-32.4,11.9c-2.1,0-4.2-0.1-6.3-0.4
			c-22.5-2.8-41.4-19.6-50.5-29.2l-4.5,1.9c0.9-8.2,2.3-16.2,4-24.1c13.4-7.3,23.9-18.7,30.1-32.9l17.1-39.2
			c2.3-5.2,8.3-7.5,13.4-5.3c5.2,2.3,7.5,8.3,5.3,13.4l-11.6,26.5c13,2.1,33.9,2.1,40.7-17.6c0.4-1.1,1-2,1.8-2.7l4.2,19.9
			c-9.2,11.2-23.2,14.9-36.4,14.9c-5.5,0-10.9-0.6-15.8-1.6C362.7,185.4,350.4,199.4,334.8,208.8z"/>
	</g>
</g>
</svg>
